<svg id="ejdhzolk8qu1" xmlns="http://www.w3.org/2000/svg" xmlns:xlink="http://www.w3.org/1999/xlink" viewBox="0 0 256 256" shape-rendering="geometricPrecision" text-rendering="geometricPrecision">
<g transform="matrix(.767027 0 0 1.03025 4.63725-41.783499)">
<rect width="256" height="256" rx="0" ry="0" transform="matrix(1.39675 0 0 1.010246-19.255389 35.288512)" fill="#27add7"/><g transform="translate(.770827 54.949699)">
    <polygon points="64.649091,211.6 89.803575,192.6 120.293611,192.6 103.669327,211.6" transform="matrix(1.133983 0 0 1-15.11097 0)" fill="#213064"/>
    <polygon points="58.2,211.6 88.5,192.6 121.246332,192.6 99.25343,211.6" transform="matrix(-1 0 0 1 320.069245 0)" fill="#213064"/>
    <polygon points="58.2,211.6 88.49984,192.6 88.5,39.6 58.2,62.574969" fill="#213064"/>
    <polygon points="58.2,211.6 88.5,195.6 88.5,39.6 58.2,62.574969" transform="matrix(-1 0 0 1 320.123011 0)" fill="#213064"/>
    <polygon points="121.3,192.6 121.3,39.6 88.5,39.6 88.5,192.6" transform="matrix(1.000003 0 0 1-.000425 0)" fill="#fff"/>
    <polygon points="121.3,192.6 121.3,39.6 88.5,39.6 88.5,192.6" transform="matrix(1.000003 0 0 1 110.322647 0)" fill="#fff"/>
    <polygon points="126.573899,199.978648 121.3,39.6 88.627912,31.126344 87.274492,181.110666 108.974104,225.858044" transform="matrix(-.64279 0.766047-.437142-.366805 257.27939 38.966707)" fill="#fff"/>
    <polygon points="145.955957,197.885608 127.43469,37.005137 85.458543,31.95127 102.64204,184.64228 132.308626,222.41421" transform="matrix(.647743 0.543521 0.358202-.426889 66.197901 62.633626)" fill="#fff"/>
</g>
</g>
    <polygon points="31.686124,-14.96655 31.767744,12.151068 13.451214,28.781027 2.036706,18.993652" transform="translate(125.963295 115.446801)" fill="#213064" stroke-width="0"/>
    <polygon points="31.686124,-14.96655 31.767744,12.151068 13.451214,28.781027 2.036706,18.993652" transform="matrix(-1.092128 0 0 0.999998 132.963295 115.446801)" fill="#213064" stroke-width="0"/>
    <polygon points="0.427712,-22.045547 22.206454,-7.910835 -24.166602,-7.910835 0.427712,-22.045547" transform="matrix(.455904 0 0 0.692434 129.290498 149.705501)" fill="#213064" stroke-width="0"/>
</svg>
